<svg xmlns="http://www.w3.org/2000/svg" viewBox="0 0 520 300"><rect width="520" height="300" rx="28" fill="#eaf4ff"/><path d="M0 220 Q70 175 140 220 T280 220 T420 220 T560 220" fill="none" stroke="#8fc3ee" stroke-width="15"/><path d="M90 125 Q130 75 175 120 Q215 72 260 124 M260 95 Q300 45 345 92 Q385 48 430 98" fill="none" stroke="#0057b8" stroke-width="12" stroke-linecap="round"/><circle cx="260" cy="178" r="48" fill="#0057b8"/><path d="M228 188c12-20 25-25 33-10 8-15 22-10 32 10-10-8-21-10-32 1-11-11-23-9-33-1z" fill="none" stroke="#fff" stroke-width="5" stroke-linecap="round"/></svg>